<?xml version="1.0" encoding="UTF-8"?>
<svg id="Graphic_Element" xmlns="http://www.w3.org/2000/svg" viewBox="0 0 1065.45 397.21">
  <defs>
    <style>
      .cls-1 {
        fill: #fff;
      }
    </style>
  </defs>
  <g id="RdlGQr">
    <g>
      <path class="cls-1" d="M1065.45,152.74c-3.05,1.84-6.18,3.55-9.12,5.55-9.41,6.4-20.14,9.05-31.12,10.78-23.33,3.68-46.2,1.25-68.57-5.99-8.92-2.88-17.51-6.77-26.44-9.6-10.46-3.31-20.83-7.03-31.85-8.32-4.64-.55-9.18-.46-13.74.25-.87.14-1.7.7-2.48,1.18-16.08,9.78-30.82,21.27-45.1,33.55-25.8,22.18-51.61,44.4-80.03,63.32-9.03,6.01-17.2,13.34-26.33,19.18-35.46,22.65-71.88,43.62-110.74,60.01-11.52,4.86-23.28,9.14-34.93,13.7-.33.13-.65.29-1.37.62,4.07,2,7.74,4.1,11.63,5.68,13.43,5.49,26.9,10.87,40.42,16.12,3.03,1.18,6.36,1.56,9.5,2.48,2.54.75,5.03,1.68,7.49,2.68,3.33,1.36,4.7,5.03,2.85,8.14-1.12,1.88-2.65,3.6-4.27,5.09-5.09,4.68-11.12,7.86-17.43,10.59-9.95,4.31-20.29,7.12-30.99,8.81-8.13,1.28-16.06.66-23.88-1.71-4.57-1.38-9.21-2.45-14-1.96-7.45.76-13.8-2.03-19.93-5.74-2.02-1.22-4.05-2.46-6.18-3.48-1.26-.6-2.74-1.13-4.1-1.08-6.24.23-11.05-2.66-15.44-6.62-1.12-1.01-2.18-2.15-3.47-2.89-2.94-1.7-5.51-2.23-9.2-.43-6.91,3.38-14.32,5.93-21.74,8.01-18.99,5.31-38.25,9.48-57.96,10.95-16.65,1.24-33.34,1.98-50,3.05-12.54.8-25.05.5-37.55-.56-21.81-1.86-43.47-4.75-64.79-9.84-21.12-5.04-42.32-9.83-63.31-15.37-25.78-6.8-49.33-18.75-71.9-32.72-4.74-2.94-9.55-5.79-14.12-8.97-18.74-13.08-38.15-25.22-55.75-39.88-13.15-10.95-24.95-23.24-35.7-36.54-6.37-7.88-12.93-15.62-19.06-23.68-5.54-7.28-10.16-15.17-13.12-23.91-1.77-5.22-2.03-10.53-.96-15.93.63-3.16,4.95-6.75,8.97-7.5,5.2-.97,10.39-2.03,15.59-3.04,1.37-.26,2.75-.45,4.07-.67-2.55-2.97-5.26-5.68-7.42-8.77-1.35-1.93-2.22-4.36-2.69-6.69-.79-3.99.37-5.24,4.12-6.38,8.63-2.63,17.44-4.65,26.19-6.84,1.17-.29,2.43-.27,3.65-.25,4.08.06,8.08-.43,11.82-2.05,6.27-2.72,12.81-2.92,19.48-2.63,5.98.26,11.92.12,17.66-2.04,4.33-1.63,8.83-1.35,13.41-1.26,8.19.16,16.39-.33,24.59-.71,1.37-.06,2.73-.85,4.05-1.4,4.41-1.83,9.01-2.68,13.72-2.11,7.73.93,15.27.24,22.91-1.26,5.99-1.18,11.64-3.19,17.24-5.31,10.47-3.96,20.8-3.19,31.3-.4,13.28,3.52,26.56,7.04,39.94,10.13,4.71,1.09,9.74.79,14.6,1.28,10.17,1.04,20.28-.03,30.41-.61,5.17-.3,10.35-.46,15.52-.72,16.38-.83,32.76-2.3,49.14-2.38,24.55-.12,49.11.58,73.66,1.23,15.54.41,31.09,1.16,46.6,2.18,13.21.87,26.39,2.31,39.57,3.53,11.4,1.05,22.78,2.31,34.19,3.12,4.04.29,8.16-.51,12.24-.78,8.44-.55,16.95-.8,25.06-3.51,6.36-2.13,12.57-4.71,18.9-6.94,2.56-.9,5.25-1.45,7.89-2.11,5.08-1.27,9.39.4,13.09,3.77,3.66,3.34,7.13,6.9,10.79,10.25.55.5,1.68.67,2.48.56,4.11-.59,8.19-1.32,12.29-1.99,10.12-1.66,20.34-2.88,30.34-5.1,11.19-2.49,22.22-5.76,33.24-8.94,18.97-5.47,37.84-11.33,56.85-16.67,16.48-4.63,33.03-9.07,49.7-12.97,9.95-2.33,20.19-3.43,30.29-5.17.97-.17,2.21-.7,2.67-1.47,2.43-3.96,5.11-7.85,6.83-12.12,3.08-7.65,5.48-15.57,8.26-23.34,5.65-15.8,14.24-29.76,26.56-41.24,6.39-5.95,13.44-11.09,21.25-15.04,2.65-1.34,5.65-2.01,8.53-2.83.6-.17,1.6.16,2.03.63.28.31.07,1.36-.24,1.89-4.33,7.57-4.69,15.53-1.58,23.44,4.15,10.54,8.81,20.89,13.29,31.3,2.78,6.44,5.85,12.79,6.81,19.82.37,2.72.06,5.53.06,8.2,3.86,1.44,7.84,2.84,11.75,4.4,8.37,3.34,15.58,8.44,21.39,15.29,6,7.07,13.36,12.63,20.11,18.87,4.33,4,8.69,7.97,12.99,11.99,5.95,5.56,12.78,9.76,20.15,13.12,1.34.61,2.92.68,4.36,1.09,1.39.4,2.75.91,4.12,1.37v1.3ZM221.47,245.1c.58.25,1.17.48,1.74.75,5.63,2.66,11.12,5.68,16.92,7.91,12.81,4.94,26.18,7.79,39.85,8.93,6.94.58,13.95.68,20.91.48,10.27-.3,20.54-1.07,30.8-1.65,2.03-.12,4.06-.29,6.63-.48-1.23-1.15-2.2-1.82-2.87-2.72-1.3-1.77-2.92-2.15-5.04-2.01-4.96.31-9.94.63-14.89.47-12.65-.41-25.31-.91-37.94-1.69-10.11-.63-20.19-1.52-30.12-3.81-11.09-2.56-19.98-7.87-25.5-18.11-.51-.95-.96-1.97-1.67-2.76-4.39-4.91-9.22-9.3-15.02-12.52-15.33-8.54-31.81-13.34-49.27-14.51-16.67-1.12-33.36-1.86-50.04-2.72-8.56-.44-17.12-.84-25.68-1.12-8.84-.29-17.68-.4-26.52-.61-1.29-.03-2.6-.03-3.88-.21-9.82-1.34-19.65-2.63-29.44-4.13-4.13-.63-8.26-1.69-11.24-4.94-2.48-2.7-1.7-4.73,1.94-5.69.28-.07.57-.07.85-.14,2.05-.55,4.12-1.07,6.16-1.67,4.56-1.35,9.1-2.75,13.59-4.11-.1-.06-.66-.66-1.06-.56-4.21,1.03-8.41,2.11-12.58,3.29-2.75.78-5.4,1.97-8.18,2.53-2.72.54-5.45,2.12-5.76,4.84-.4,3.52-.6,7.19-.03,10.66.97,5.85,4.21,10.86,7.57,15.6,15.19,21.46,31.66,41.85,50.64,60.14,16.02,15.43,32.37,30.44,52.34,40.79,8.82,4.57,17.72,8.98,26.65,13.34,14.1,6.9,28.08,14.04,43.19,18.65,14.92,4.55,29.66,9.73,44.62,14.14,13.02,3.83,26.15,7.36,39.39,10.32,12.21,2.73,24.59,4.85,36.97,6.66,11.78,1.72,23.65,2.97,35.52,3.94,11.78.96,23.58.62,35.39-.21,16.57-1.17,33.16-2.08,49.58-4.81,16.8-2.79,33.21-7.11,49.44-12.18,3.36-1.05,6.54-2.68,10.23-4.22-2.43-1.3-4.41-2.08-6.07-3.3-2.47-1.82-4.75-2.26-7.26-.21-.54.44-1.29.62-1.94.91-11.37,5.03-23.59,6.59-35.69,8.57-5.59.92-11.29,1.22-16.93,1.88-5.19.61-10.34,1.69-15.54,1.94-13.37.63-26.76.98-40.14,1.31-7.17.17-14.35.16-21.53.05-3.88-.06-7.75-.46-11.62-.82-7.66-.72-15.34-1.3-22.95-2.35-11.89-1.64-23.74-3.55-35.59-5.46-18.04-2.92-35.88-6.8-53.4-12.01-15.96-4.74-31.35-11.04-46.79-17.25-22.66-9.1-44.59-19.6-65.33-32.53-14-8.72-27.71-17.78-39.52-29.43-5.53-5.46-10.96-11.07-16.88-16.09-11.75-9.95-20.19-22.57-29.11-34.82-1.18-1.61-1.95-3.52-2.92-5.29.76-.05,1.18.15,1.45.48,2.92,3.55,5.74,7.19,8.74,10.67,6.29,7.3,12.47,14.72,19.09,21.72,5.73,6.06,12.22,11.4,17.98,17.43,16.78,17.58,36.81,30.68,57.83,42.42,15.77,8.81,32.25,16.09,48.93,23.01,23.32,9.68,47.15,17.73,71.93,22.65,18.19,3.61,36.45,6.88,54.74,9.97,9.05,1.53,18.21,2.66,27.37,3.3,11.12.78,22.3.99,33.45,1.21,10.44.21,20.91.57,31.32.03,10.02-.52,19.98-2.24,29.98-3.21,13.69-1.33,27.17-3.84,40.51-7.07,4.51-1.09,8.86-2.82,13.74-4.41-4.6-2.78-8.64-5.26-12.73-7.63-.49-.28-1.34-.14-1.95.03-2.89.84-5.7,2.07-8.63,2.59-11.6,2.03-23.23,3.9-34.86,5.73-13.53,2.13-27.16,3.14-40.85,3.37-2.3.04-4.61.04-6.91.14-6.82.29-13.65,1.06-20.46.86-20.22-.62-40.36-2.32-60.39-5.26-22.23-3.26-44.18-7.58-65.69-14.24-24.93-7.72-49.3-16.87-72.84-28.1-23.85-11.38-46.19-25.36-67.99-40.22-10.23-6.97-19.55-15.04-27.38-24.6-4.9-5.98-9.1-12.55-13.47-18.95-.98-1.43-1.35-3.27-2-4.93.22-.11.45-.22.67-.33,2.52,3.18,5.11,6.3,7.53,9.55,7.72,10.36,15.95,20.28,26.09,28.38,20.77,16.6,43.21,30.7,66.61,43.25,21.16,11.34,43.36,20.27,66.37,27.1,15.57,4.62,31.08,9.57,46.87,13.31,16.99,4.03,34.27,6.8,51.68,8.47,10.37,1,20.76,2.27,31.15,2.42,29.02.4,58.04-.21,86.84-4.29,11.78-1.67,23.48-3.93,35.22-5.92,0-.26,0-.53,0-.79-3.84-2.05-7.66-4.13-11.53-6.13-.44-.23-1.13-.03-1.69.06-5.17.82-10.32,1.98-15.52,2.43-12.47,1.07-24.96,1.98-37.46,2.63-13.87.73-27.77,1.17-41.65,1.61-15.99.51-31.97.39-47.86-1.67-12.33-1.59-24.64-3.31-36.94-5.08-13.33-1.92-26.61-4.17-39.41-8.5-13.99-4.73-27.99-9.43-41.89-14.4-7.9-2.82-15.77-5.81-23.36-9.36-16.46-7.72-31.95-17.21-47.22-27.04-11.94-7.68-23.75-15.55-33.76-25.7-3.86-3.92-7.49-8.22-10.44-12.85-4.31-6.76-7.91-13.97-11.81-21-.35-.63-.63-1.29-.94-1.93.85.07,1.34.36,1.66.78,2.71,3.53,5.83,6.83,7.98,10.68,7.64,13.68,17.61,25.29,30.41,34.25,13.24,9.26,26.64,18.32,40.34,26.87,8.61,5.38,17.58,10.5,26.97,14.27,20.14,8.07,40.64,15.23,61.04,22.66,14.64,5.33,29.95,7.64,45.33,9.45,8.71,1.03,17.42,2.05,26.15,2.91,10.52,1.03,21.04,2.27,31.58,2.67,10.2.39,20.45.14,30.66-.36,23-1.12,45.99-2.51,68.97-3.93,4.8-.3,9.57-1.21,14.67-1.87-4.15-2.6-7.97-5.02-11.84-7.37-.45-.27-1.17-.22-1.74-.13-3.11.53-6.18,1.36-9.31,1.64-10.39.93-20.8,1.72-31.2,2.47-9.62.7-19.24,1.68-28.87,1.83-12.81.2-25.63-.14-38.44-.55-7.69-.25-15.39-.86-23.03-1.72-13.21-1.49-26.4-3.22-39.57-5.01-13.48-1.83-26.83-4.36-39.83-8.45-16.12-5.06-31.79-11.3-47.08-18.48-12.14-5.7-24.44-11-35.77-18.33-10.44-6.74-19.9-14.65-29.32-22.68-8.82-7.52-17.92-14.74-24.64-24.35-3.4-4.86-6.57-9.88-9.78-14.87-.41-.64-.44-1.52-.76-2.74.59.43.74.49.8.6,5.57,9.27,12.27,17.72,19.9,25.32,6.67,6.64,13.9,12.73,21.01,18.91,11.88,10.33,24.87,19.12,39.06,25.85,14.69,6.96,29.71,13.23,44.75,19.43,13.23,5.45,26.77,10.27,40.89,12.74,17.41,3.04,34.91,5.68,52.45,7.75,12.91,1.52,25.96,2.11,38.96,2.62,12.01.47,24.07.81,36.07.27,17.03-.77,34.03-2.39,51.03-3.68,3.33-.25,6.65-.62,10.64-.99-4.32-2.79-8.09-5.24-11.88-7.66-.27-.17-.68-.2-1.01-.16-4.41.54-8.8,1.31-13.23,1.62-12.91.91-25.83,2.14-38.76,2.33-20.07.3-40.2,1.25-60.22-1.14-14.06-1.67-28.14-3.32-42.08-5.76-30.23-5.28-59.25-14.67-87.04-27.67-19.17-8.96-36.65-20.64-52.65-34.46-11.77-10.16-21.53-21.93-27.47-36.51-.18-.45-.29-.94-.43-1.41.2-.11.39-.22.59-.32,1.18,1.57,2.36,3.13,3.53,4.7,4.71,6.34,9.05,13.01,14.2,18.98,18.43,21.35,41.22,36.79,66.75,48.46,19.43,8.88,39.61,15.46,60.32,20.59,13.76,3.41,27.69,5.85,41.75,7.53,14.08,1.68,28.16,3.38,42.36,3.49,9.58.07,19.15.09,28.73.15,8.06.05,16.13.48,24.18.13,10.27-.44,20.52-1.48,30.77-2.27,2.02-.16,4.04-.35,6.4-.55-4.34-2.98-8.36-5.76-12.4-8.51-.38-.26-.9-.45-1.34-.43-6.47.35-12.93.79-19.39,1.11-13.73.69-27.45,1.57-41.19,1.92-17.29.44-34.51-.39-51.69-2.79-14.97-2.09-29.88-4.39-44.35-8.76-22.57-6.82-44.52-15.28-65.66-25.81-12.77-6.36-24.95-13.42-35.48-23.2-8.1-7.52-14.85-15.97-19.83-25.82-.59-1.17-.94-2.46-1.4-3.69.19-.08.38-.16.57-.25.28.36.59.71.85,1.09,11.98,17.91,25.68,34.06,45.17,44.34,12.99,6.85,25.79,14.05,39.74,18.9,20.25,7.03,40.52,13.99,61.91,16.74,16.4,2.11,32.67,5.19,49.23,6.14,11.61.67,23.16.38,34.73-.41,9.98-.68,19.96-1.46,29.94-2.01,4.55-.25,9.12-.04,14.1-.04-4.26-3.21-8.22-6.04-12-9.1-2.08-1.68-3.81-2.43-6.79-1.82-6.3,1.28-12.78,1.91-19.21,2.33-12.41.82-24.84,1.57-37.28,1.86-6.81.16-13.66-.54-20.47-1.06-12.19-.93-24.49-1.26-36.52-3.23-22.53-3.68-43.99-10.77-63.52-23.03-17.33-10.88-33.74-22.84-47.2-38.43-.49-.57-.82-1.27-1.23-1.91,4.26,3.5,8.1,7.28,12.03,10.98,3.98,3.74,7.8,7.71,12.12,11.02,14.7,11.26,30.74,20.25,48.03,26.9,15.81,6.08,32.02,10.71,49,12.15,13.55,1.15,27.08,2.7,40.66,3.29,17.04.73,34.11.66,51.08-1.61,4.36-.58,8.72-1.18,13.67-1.84-4.99-3.47-8.43-7.68-15.23-6.11-6.72,1.55-13.86,1.41-20.83,1.72-12.59.57-25.19,1.29-37.78,1.26-15.7-.03-31.28-1.79-46.68-4.95-18.17-3.72-35.31-10.1-50.56-20.78-7.21-5.05-13.87-10.89-20.71-16.45-1.53-1.24-2.77-2.82-4.15-4.25.14-.13.28-.27.42-.4.18.07.4.11.54.22,4.66,3.93,9.32,7.87,13.98,11.8,18.67,15.76,40.61,24.02,64.38,28.13,13.46,2.33,27.09,2.76,40.65,2.77,18.42,0,36.84-1.06,55.26-1.67,2.61-.09,5.23-.24,8.27-.38-2.34-1.7-4.43-2.99-6.25-4.58-2.75-2.4-5.44-3.25-9.39-2.77-8.19.99-16.51,1.03-24.78,1.19-9.72.18-19.47-.45-29.15.2-15.6,1.05-30.45-2.19-45.02-6.95-10.76-3.52-20.4-9.5-30.13-15.19-4.61-2.7-8.93-5.76-12.34-9.94-.41-.5-.67-1.11-1.21-2.04,5.43,3.71,10.38,7.2,15.44,10.52,9.08,5.95,18.28,11.83,28.98,14.33,10.05,2.35,20.24,4.12,30.41,5.89,9.41,1.64,18.94,1.56,28.43,1.11,11.86-.56,23.7-1.42,35.55-2.12,1.61-.09,3.22-.01,5.37-.01-2.98-2.68-5.45-4.95-8-7.12-.38-.32-1.16-.31-1.74-.25-3.14.34-6.27,1.02-9.41,1.06-8.78.1-17.57-.22-26.36-.09-14.4.21-28.72-.4-42.94-2.9-14.53-2.55-27.55-8.65-39.8-16.63.15-.1.31-.2.46-.3ZM216.81,219.24c.3.44.6.88.9,1.32.12-.08.24-.16.36-.24-.27-.56-.53-1.11-.8-1.67-1.52-3.05-3.04-6.11-4.56-9.16.58-.08.83.05.95.26,3.02,5.01,6.36,9.87,8.95,15.09,5.03,10.13,12.04,17.79,23.32,20.78,5.28,1.4,10.61,2.6,15.85,4.14,10.43,3.05,21.09,4.32,31.9,4.47,9.5.13,19,.02,28.5.02,3.13,0,6.26,0,9.21,0-1.13-1.52-2.49-3.24-3.72-5.05-.24-.35-.03-1.01-.03-1.52.51.02,1.11-.12,1.52.1.68.37,1.26.94,1.85,1.47,3.52,3.19,6.87,6.58,10.56,9.57,10.41,8.41,20.92,16.69,31.45,24.96,6.9,5.42,13.66,11.04,20.87,16.02,14.8,10.21,30.08,19.74,44.75,30.13,12.44,8.81,25.53,16.22,39.51,22.25,5.52,2.38,10.93,5.14,16.05,8.28,4.47,2.74,9.05,4.89,14.1,6.25,4.64,1.26,9.1,2.95,13.21,5.63,4.01,2.62,8.17,5.21,12.59,6.97,11.39,4.54,22.88,8.77,35.19,10.44,7.16.97,14.17,3.62,21.47,3.01,8.36-.7,16.68-2.03,25-3.21,4.94-.71,9.52-2.28,13.57-5.48,2.33-1.84,5.27-2.9,7.95-4.28,3.06-1.59,6.27-2.94,9.16-4.79,1.95-1.24,3.54-3.1,5.16-4.81,1.1-1.16.69-2.29-.72-2.9-1.77-.76-3.56-1.54-5.41-2.04-24.43-6.5-47.62-15.99-69.24-29.11-13.78-8.37-27.3-17.19-41.1-25.51-18.54-11.18-37.19-22.17-55.9-33.07-12.43-7.24-24.83-14.56-37.63-21.09-8.85-4.52-18.22-8.15-27.62-11.44-7.33-2.56-15.06-3.97-22.6-5.93-.72-.19-1.37-.66-2.05-1,.09-.2.18-.41.27-.61.42-.04.85-.16,1.25-.1,5.36.93,10.83,1.47,16.04,2.91,10.08,2.79,20.06,5.95,30,9.2,17.31,5.65,35.24,8.36,53.06,11.62,2.24.41,4.49.76,6.74,1.13-.03.26-.05.52-.08.78-3.59-.2-7.18-.29-10.76-.63-3.71-.36-7.41-.92-11.1-1.46-3.51-.52-7.02-1.12-10.52-1.68-.04.24-.08.48-.12.73,12.85,2.6,25.7,5.21,38.55,7.81-12.51.29-24.55-2.9-36.87-4.61,3.06,1.78,6.15,3.63,9.48,4.32,12.23,2.56,24.53,4.72,36.8,7.06,1.57.3,3.11.74,4.66,1.12-.06.27-.11.54-.17.8-12.43-1.99-24.86-3.98-37.28-5.97-.06.22-.12.43-.18.65,2.87,1.41,5.6,3.37,8.63,4.12,7.68,1.9,15.48,3.29,23.25,4.82,4.98.98,9.99,1.82,14.98,2.73-.03.21-.06.42-.09.63-11.31-.99-22.47-3.17-33.72-4.85,3.14,2.13,6.41,3.95,9.51,6.02,3.65,2.44,7.32,3.66,11.95,3.64,8.98-.04,17.95,1.16,26.94,1.54,8.26.34,16.54.29,24.82.36,5.71.05,11.42,0,16.81,0,.24-.22.11.01-.05.03-21.67,2.8-43.49,2.95-65.46,3.65,1.77,1.15,3.44,2.34,5.21,3.36.88.51,1.93,1.02,2.91,1.04,7.41.16,14.83.32,22.24.25,7.76-.07,15.52-.37,23.28-.61,2.93-.09,5.87-.3,8.8-.45.01.24.02.48.03.72-16.94,2.46-33.95,3.94-51.18,2.8,1.91,1.55,3.84,2.9,5.81,4.16.45.29,1.06.42,1.6.42,5.76.03,11.53.24,17.27-.04,7.09-.35,14.16-1.07,21.23-1.74,4.41-.42,8.81-1.08,13.21-1.61,2.86-.34,5.73-.63,9.15-1-.69.52-.89.79-1.12.83-18.69,2.62-37.22,6.73-56.27,5.96-.19,0-.37,0-.56-.01.09.11.19.22.28.33,1.25.94,2.58,1.79,3.75,2.83,1.72,1.55,3.63,1.94,5.92,1.83,9.68-.48,19.35-1.01,28.88-2.96,11.84-2.42,23.66-4.9,35.5-7.33.25-.05.55.14.82.22-10.54,3.76-21.34,5.98-32.18,8.09-10.99,2.14-22.01,3.81-33.26,3.96,2.44,1.88,4.87,3.54,7.33,5.16.4.26.93.56,1.36.52,5.43-.55,10.92-.78,16.25-1.85,12.63-2.54,25.18-5.48,37.77-8.25.42-.09.88-.01,1.33-.01l.1.65c-17.25,4.86-34.36,10.3-52.6,11.39,6.37,5.05,7.07,5.22,14.36,3.52.28-.06.57-.09.85-.14,16.35-2.96,32.29-7.28,47.5-14.07,2.58-1.15,5.23-2.17,7.85-3.26-4.11,3.53-35.83,16.59-59.79,20.68,2.8,1.6,5.36,2.99,7.83,4.52,1.05.65,1.87.57,2.95.1,4.29-1.85,8.57-3.75,12.96-5.34,40.65-14.73,78.98-34.28,115.75-56.78,33.67-20.6,65.25-44.19,95.1-70.07,12.89-11.17,26.1-21.97,39.27-32.83,10.17-8.39,20.84-16.07,32.66-22.03.19-.09.33-.29.8-.71-1.63.22-2.83.42-4.04.54-1.06.11-2.13.15-3.33.23,5.71-6.41,12.42-10.9,19.27-15.28,6.7-4.29,13.12-9.02,19.66-13.56.03.06.07.12.1.19-9.49,7.81-18.97,15.62-28.77,23.68.79,0,1.09.05,1.36,0,9.1-1.86,18.16-.86,26.94,1.39,9.15,2.35,18.12,5.53,27.01,8.77,12.2,4.45,24.29,9.1,37.21,11.23,23.11,3.81,46,3.69,68.66-2.82,5.49-1.58,10.96-3.23,16.3-6.52-6.74-.8-12.04-3.69-16.58-7.99-8.78-8.32-17.46-16.73-26.23-25.06-5.73-5.44-11.35-11.02-17.35-16.16-9.93-8.5-21.89-13.45-33.86-18.72,1.32-1.01.27-1.47-.63-1.74-2.85-.85-5.72-1.66-8.62-2.36-1.73-.42-3.53-.58-5.29-.86.04-.27.08-.53.12-.8,5.04.57,10.08,1.14,15.13,1.71.07-.27.15-.55.22-.83-4.8-1.58-9.6-3.16-14.4-4.74.06-.23.12-.46.18-.69,4.99,1.07,9.98,2.15,14.97,3.22l.2-.33c-2.88-2.01-5.75-4.03-9.14-6.4,4.23.75,7,3.12,10.17,4.97.04-.41.1-.67.08-.94-.09-1.22-.14-2.44-.3-3.65-.97-7.43-4.64-13.77-8.2-20.15-3.14-5.65-6.48-11.2-9.31-17-4.26-8.72-5.36-17.83-2.03-27.18.53-1.5,1.15-2.97,1.87-4.82-9.82,4.23-18.27,9.79-25.76,16.68-11.9,10.95-21.15,23.93-27.07,38.98-4.67,11.87-8.5,24.07-12.76,36.29,10.84-1.3,21.66-2.61,32.48-3.91.03.21.06.42.1.63-3.5.76-6.97,1.72-10.5,2.26-10.4,1.57-20.82,2.99-31.23,4.44-5.05.71-10.11,1.29-15.15,2.08-12.07,1.89-24.11,4.03-35.78,7.73-17.68,5.6-35.24,11.57-52.93,17.15-27.94,8.8-55.93,17.47-84.9,22.35-11.75,1.98-23.56,3.97-35.43,4.86-11.31.85-22.75.63-34.11.26-14.68-.47-29.36-1.2-43.99-2.44-19.93-1.69-39.78-4.29-59.72-5.91-18.73-1.53-37.51-2.35-56.28-3.38-13.52-.75-27.04-1.55-40.57-1.93-11.59-.33-23.2-.5-34.78-.03-13.58.55-27.13,1.95-40.71,2.84-7.47.49-14.97.52-22.44,1.07-10.42.76-20.8,1.46-31.27.78-16.21-1.05-31.9-4.19-46.85-10.59-9.45-4.05-19.19-6.27-29.37-4.14-7.22,1.51-14.24,3.92-21.38,5.84-3.38.91-6.78,1.91-10.24,2.3-4.91.56-9.88.57-14.83.85-7.63.43-15.16,1.53-22.53,3.61-5.26,1.48-10.54,1.94-15.95.46-4.39-1.2-8.95-1.65-13.45-.58-3.69.88-7.37,1.92-10.96,3.15-4.48,1.53-8.97,2.17-13.55.8-6.19-1.85-12.05-1.11-17.73,1.82-3.01,1.55-6.18,2.13-9.61,1.66-3.77-.51-7.45.12-10.91,1.77-3.93,1.87-7.93,3.23-12.42,3.07-4.2-.15-8.3.69-11.96,2.95-2.25,1.39-2.27,4.05.07,5.41,3.6,2.08,7.17,4.29,10.98,5.89,7.03,2.94,14.1,5.96,21.83,6.63,11.96,1.05,23.92,2.06,35.87,3.11.86.08,1.69.35,2.54.53-.05.26-.1.52-.15.79-19.3,1.47-38.1-1.96-56.79-6.52,9.04,5.41,18.73,8.32,29.23,8.5,9,.15,18,.2,26.99.6,7.26.32,14.49,1.37,21.75,1.61,9.42.31,18.85.27,28.28.14,8.43-.12,16.61,1.2,24.71,3.38,13.19,3.55,25.75,8.46,35.67,18.23,4.22,4.16,7.63,9.13,11.41,13.73ZM507.83,370.37c-3.5-1.09-6.73-1.87-9.78-3.1-3.12-1.26-6.11-2.88-9.09-4.47-1.09-.59-1.82-.56-2.91.08-2.59,1.51-5.19,3.22-8.02,4.06-12.14,3.62-24.29,7.27-36.58,10.29-12.91,3.17-26.08,5.06-39.38,5.84-13.79.8-27.58,2.17-41.38,2.28-20.5.16-40.87-1.9-61.14-5.23-22.77-3.74-45.17-9-67.34-15.29-14.27-4.05-28.5-8.24-42.72-12.45-3.47-1.03-6.91-2.19-10.24-3.59-10.42-4.38-20.84-8.79-31.15-13.42-3.97-1.78-7.66-4.2-11.48-6.31-.42-.23-.9-.35-1.35-.52.41.87,1.02,1.32,1.67,1.71,6.56,3.88,13.07,7.84,19.7,11.59,5.17,2.92,10.33,5.96,15.78,8.29,23.96,10.24,48.78,18,73.97,24.47,13.92,3.58,28.09,6.24,42.25,8.73,10.81,1.9,21.74,3.4,32.69,4.17,19.53,1.37,39.11,2.18,58.68,2.96,16.43.66,32.81-.23,49.11-2.44,16.26-2.2,32.26-5.73,48.17-9.67,10.16-2.51,20.26-5.28,30.56-7.97ZM214.34,219.62c-.44-.78-.65-1.46-1.1-1.9-3.25-3.14-6.29-6.56-9.86-9.29-18.56-14.19-40.17-20.18-62.99-21.36-19.25-.99-38.58-.52-57.87-.41-8.49.05-16.83-.55-24.93-3.17-8.16-2.64-16.69-4.31-24.08-9.02-.31-.2-.81-.1-1.38-.15,1.42,1.44,2.64,2.84,4.02,4.06,6.6,5.84,14.5,9.5,22.34,13.29,4.02,1.94,8.19,3.09,12.57,3.35,11.04.67,22.09,1.25,33.14,1.77,13.37.63,26.75,1.14,40.12,1.74,1.91.09,3.81.4,5.72.6.02-.15.05-.29.07-.44-1.15-.65-2.3-1.3-3.44-1.96.08-.16.16-.32.23-.48,4.79,1.32,8.98,4.69,14.49,4.35-2.01-1.35-3.88-2.6-5.74-3.85.12-.19.23-.38.35-.57,2.36,1.33,4.73,2.63,7.07,3.99,3.31,1.92,5.43,2.62,7.6,2.42-2.02-1.63-4.03-3.26-6.05-4.89,5.13,1.88,8.46,6.83,14.27,7.19.17-.18.35-.37.52-.55-1.66-1.46-3.32-2.93-4.98-4.39,3.07.84,4.98,3.17,7.19,5.16.96.86,2.33,1.26,3.52,1.87.08-.16.16-.32.23-.48-1.89-2.14-3.79-4.28-5.68-6.42.15-.16.3-.32.45-.48.61.42,1.26.79,1.81,1.28,2.2,1.97,4.2,4.19,6.58,5.9,1.93,1.4,4.29,2.21,6.46,3.28.07-.17.13-.34.2-.51-1.19-1.51-2.39-3.02-3.01-3.8,6.76,4.23,14.31,8.95,22.16,13.86ZM656.99,147.71c-2.43-2.91-4.63-5.45-6.71-8.08-2.24-2.83-5.08-3.59-8.59-3.23-10.14,1.06-20.09,3.05-29.84,6-5.28,1.59-10.55,3.2-15.83,4.81,20.28,1.68,40.48,1.71,60.97.5ZM53.01,194.25c-3.63-2.39-7.54-4.85-11.31-7.51-1.99-1.4-3.7-3.19-5.59-4.74-.42-.35-1.1-.63-1.62-.58-3.2.33-6.37.91-9.58,1.12-4.79.32-9.25,1.42-13.33,4.49,13.19,7.77,27.55,7.49,41.42,7.21ZM465.54,263.03c.02-.13.04-.26.07-.39l-1.09-.09c0,.07,0,.15,0,.22.34.09.69.17,1.03.26ZM133.95,328.08c-.03.13-.07.27-.1.4.38.04.77.08,1.15.12.01-.12.02-.24.04-.37-.36-.05-.72-.11-1.09-.16Z"/>
      <path class="cls-1" d="M610.5,285.45c26.78-6.93,53.96-12.7,79.41-23.76,25.28-10.98,51.55-19.89,75.04-34.77-46.96,31.42-98.71,50.29-154.45,58.53Z"/>
      <path class="cls-1" d="M241.12,226.16c2.45.15,5-.06,7.34.55,2.55.67,5.1,1.75,6.87,4,.96,1.23,1.35,2.26.2,3.75-4.14,5.41-10.3,5.65-15.55.45-1.27-1.26-2.54-2.54-3.65-3.95-.38-.48-.54-1.81-.28-1.99,1.55-1.05,3.25-1.88,4.9-2.79l.18-.02ZM255.19,232.88c-1.86-1.45-3.38-2.64-5.05-3.95v6.05c1.61-.67,3.1-1.29,5.05-2.1ZM242.52,232.45c.32.08.64.16.96.24.42-1.01,1-2,1.17-3.05.04-.27-1.2-.74-2.12-1.28v4.08Z"/>
      <path class="cls-1" d="M168.59,184.14c-1.75-.25-3.53-.4-5.26-.77-8.47-1.79-17.06-2.04-25.68-2.08-9.41-.05-18.82-.27-28.23-.51-2-.05-3.99-.5-5.99-.77,0-.19,0-.38.01-.57.44-.12.88-.34,1.32-.34,12.43.08,24.87-.05,37.29.39,7.42.26,14.82,1.38,22.21,2.23,1.54.18,3.03.85,4.54,1.3-.07.38-.15.75-.22,1.13Z"/>
      <path class="cls-1" d="M545.31,332.45c-1.56-.78-2.64-1.21-3.61-1.84-10.39-6.72-20.66-13.62-31.16-20.17-8.55-5.34-17.37-10.26-26.06-15.38-.76-.45-1.49-.95-2.23-1.43.06-.19.13-.38.19-.57.53.13,1.06.23,1.58.38,6.69,1.96,12.43,5.78,18.15,9.54,14.23,9.35,28.35,18.87,42.5,28.33.15.1.2.35.64,1.13Z"/>
      <path class="cls-1" d="M801.19,186.16c-2.19,1.79-4.19,3.92-6.61,5.31-10.36,5.94-20.8,11.73-31.29,17.42-3.73,2.02-7.7,3.6-11.57,5.37-.09.04-.23-.04-.58-.12,8.48-4.61,16.88-9.01,25.11-13.7,8.29-4.73,16.42-9.75,24.61-14.64.11.12.22.24.33.36Z"/>
      <path class="cls-1" d="M787.17,189.17c-16.64,9.95-33.74,19.07-51.09,27.72-.09-.17-.18-.34-.28-.51,16.96-9.37,33.92-18.74,50.88-28.11l.49.9Z"/>
      <path class="cls-1" d="M846.21,152.36c-1.15,1.39-2.11,3.01-3.48,4.13-5.28,4.3-10.68,8.44-16.05,12.62-.56.43-1.19.77-2.11.94.37-.55.65-1.21,1.13-1.63,6.19-5.36,12.4-10.69,18.63-16.01.35-.3.84-.43,1.26-.64.2.2.4.39.61.59Z"/>
      <path class="cls-1" d="M671.66,277.78c-3.85,3.4-33.84,15.55-36.77,14.9,12.56-5.09,24.66-10,36.77-14.9Z"/>
      <path class="cls-1" d="M206.07,200.74c-9.21-7.35-19.78-11.97-31.03-15.4,3.93-2.35,28.87,9.95,31.03,15.4Z"/>
      <path class="cls-1" d="M815,170.92c1.8-2.74,21.61-17.77,24.67-18.47-.58.7-1.06,1.55-1.76,2.08-5.03,3.75-10.1,7.47-15.19,11.14-2.35,1.7-4.8,3.27-7.71,5.25Z"/>
      <path class="cls-1" d="M780.22,207.73c6.39-4.74,12.74-9.45,19.52-14.48-.95,3.58-15.8,14.21-19.52,14.48Z"/>
      <path class="cls-1" d="M972.49,99.75c-8.62,2.03-17.24,4.05-25.86,6.08,8.22-3.67,16.77-5.98,25.71-6.68.05.2.1.4.15.6Z"/>
      <path class="cls-1" d="M965.35,106.76c-7.39,2.08-14.5,4.07-21.47,6.03,2.37-2.57,18.42-7.34,21.47-6.03Z"/>
      <path class="cls-1" d="M853.52,149.9c.24,1.09.56,1.63.4,1.94-2.15,4.29-5.28,7.65-9.73,9.75,2.96-3.71,5.92-7.42,9.33-11.69Z"/>
      <path class="cls-1" d="M534.44,279.49h19.71c-1.92,1.69-17.17,2.44-19.74.68.01-.23.02-.46.03-.68Z"/>
      <path class="cls-1" d="M530.09,272.63h19.19c0,.27,0,.54-.01.81-6.43.92-12.84.6-19.18-.81Z"/>
      <path class="cls-1" d="M241.12,226.16l-.18.02c-.46-.38-.92-.77-1.39-1.15,2.19-2.74,10.34-2.14,12.59,1-1.88-.46-3.61-1.18-5.37-1.23-1.9-.06-3.81.52-5.71.84-.01,0,.04.34.06.53Z"/>
      <path class="cls-1" d="M546.8,266.67c-4.28,1.27-15.81,1.35-18.01,0h18.01Z"/>
      <path class="cls-1" d="M247.44,241.04c-3.82.71-8.71-1.85-9.13-5.21,3.15,1.8,6.1,3.48,9.13,5.21Z"/>
      <path class="cls-1" d="M955.1,84.06c-3.12,1.83-11.58,2.37-13.41,1.08,4.6-.37,9.01-.72,13.41-1.08Z"/>
      <path class="cls-1" d="M643.95,302.05c3.9-2.74,8.23-4.71,12.5-6.78.11.19.21.38.32.57-4.15,2.3-8.29,4.59-12.44,6.89-.13-.22-.25-.45-.38-.67Z"/>
      <path class="cls-1" d="M958.81,114.18c-3.99,1.55-7.98,3.11-11.97,4.66-.11-.26-.21-.53-.32-.79,3.97-1.65,7.95-3.29,11.92-4.94.12.36.24.72.37,1.08Z"/>
      <path class="cls-1" d="M570.67,345.89c-3.67-1.26-7.19-2.78-10.15-5.31l.4-.73c3.38,1.87,6.76,3.73,10.14,5.6-.13.14-.26.29-.39.43Z"/>
      <path class="cls-1" d="M945.63,60.67c2.62-.61,9.37,2.94,9.97,5.39-3.38-1.83-6.59-3.56-9.97-5.39Z"/>
      <path class="cls-1" d="M948.69,66.93c-2.43-.54-4.85-1.08-7.44-1.66,1.9-1.05,6.04-.27,7.44,1.66Z"/>
      <path class="cls-1" d="M925.62,108.05c-2.81,1.63-5.08,2.94-7.34,4.25,1.77-2.21,3.88-3.81,7.34-4.25Z"/>
      <path class="cls-1" d="M940.03,81.21c-2.39.24-4.79.48-7.18.73-.03-.25-.07-.51-.1-.76,2.4-.26,4.8-.51,7.2-.77.03.27.05.54.08.8Z"/>
      <path class="cls-1" d="M221.01,245.41c-.11-.2-.21-.39-.32-.59.26.09.52.19.78.28-.15.1-.31.2-.46.3Z"/>
      <path class="cls-1" d="M130.73,191.44c.15.29.3.58.6,1.16-2.13-.66-3.96-1.22-5.73-1.76,2.53-1.76,5.54-1.62,8,.8-1.09-.24-1.76-.39-2.44-.54-.4-.15-.8-.3-1.21-.44-.04.1-.08.21-.12.31.3.16.59.32.89.48Z"/>
      <path class="cls-1" d="M119.19,191.86l8.56,2.33c-.09.33-.18.66-.27.98-2.82-.83-5.65-1.65-8.47-2.48.06-.28.12-.56.19-.83Z"/>
    </g>
  </g>
</svg>